<svg width="559" height="474" viewBox="0 0 559 474" fill="none" xmlns="http://www.w3.org/2000/svg">
<path d="M51.7456 377.774V382.846C54.4912 404.654 74.6123 415.878 85.0345 418.872C74.6123 421.859 54.4912 433.082 51.7456 454.883V459.962C51.7456 458.733 51.6912 457.528 51.59 456.353C51.4811 457.528 51.4345 458.733 51.4345 459.962V454.891C48.6812 433.082 28.56 421.859 18.1378 418.872C28.56 415.878 48.6812 404.654 51.4267 382.846V377.774C51.4267 379.011 51.4812 380.209 51.5823 381.383C51.6912 380.209 51.7456 379.011 51.7456 377.774Z" fill="white"/>
<path d="M512.696 140V147.194C516.46 178.15 544.024 194.087 558.297 198.333C544.024 202.58 516.46 218.509 512.696 249.472V256.667C512.696 254.917 512.618 253.213 512.486 251.549C512.341 253.251 512.268 254.958 512.268 256.667V249.472C508.503 218.517 480.939 202.58 466.667 198.333C480.939 194.087 508.503 178.158 512.268 147.194V140C512.268 141.75 512.346 143.453 512.486 145.118C512.626 143.453 512.696 141.75 512.696 140Z" fill="url(#paint0_linear_65_6)"/>
<path d="M268.162 7.46667C270.216 7.46667 271.88 5.79519 271.88 3.73333C271.88 1.67147 270.216 0 268.162 0C266.109 0 264.445 1.67147 264.445 3.73333C264.445 5.79519 266.109 7.46667 268.162 7.46667Z" fill="white"/>
<path d="M427.436 473.838C431.542 473.838 434.871 470.491 434.871 466.363C434.871 462.235 431.542 458.889 427.436 458.889C423.329 458.889 420 462.235 420 466.363C420 470.491 423.329 473.838 427.436 473.838Z" fill="white" fill-opacity="0.7"/>
<path d="M509.273 404.133C511.327 404.133 512.991 402.462 512.991 400.4C512.991 398.338 511.327 396.667 509.273 396.667C507.22 396.667 505.556 398.338 505.556 400.4C505.556 402.462 507.22 404.133 509.273 404.133Z" fill="white" fill-opacity="0.3"/>
<path d="M462.607 419.689C464.66 419.689 466.324 418.017 466.324 415.956C466.324 413.894 464.66 412.222 462.607 412.222C460.553 412.222 458.889 413.894 458.889 415.956C458.889 418.017 460.553 419.689 462.607 419.689Z" fill="white" fill-opacity="0.3"/>
<path d="M7.43556 271.615C11.5421 271.615 14.8711 268.269 14.8711 264.141C14.8711 260.013 11.5421 256.667 7.43556 256.667C3.32901 256.667 0 260.013 0 264.141C0 268.269 3.32901 271.615 7.43556 271.615Z" fill="white" fill-opacity="0.3"/>
<path d="M77.7778 70V275.878C77.7778 376.966 157.866 458.889 256.667 458.889C355.468 458.889 435.556 376.958 435.556 275.878V70H77.7778Z" fill="url(#paint1_linear_65_6)"/>
<path d="M115.041 108.127V273.638C115.041 354.9 178.446 420.762 256.659 420.762C334.88 420.762 398.284 354.9 398.284 273.646V108.134H115.033L115.041 108.127Z" fill="url(#paint2_linear_65_6)"/>
<path opacity="0.4" d="M263.916 374.632C262.586 374.15 260.96 372.812 260.4 371.731C259.835 370.445 259.329 369.135 258.883 367.803C256.044 359.652 252.35 355.203 247.886 354.596C244.51 354.13 238.373 358.291 231.311 365.82C227.111 370.3 225.618 371.046 222.367 370.269C220.391 369.794 218.136 367.733 217.646 365.952C216.619 362.195 217.474 360.539 223.65 354.386C230.417 347.643 235.2 344.213 240.699 342.175C242.939 341.343 243.413 341.273 247.139 341.265C250.911 341.258 251.339 341.312 253.781 342.183C257.359 343.459 259.35 344.703 262.29 347.488C266.179 351.19 269.236 356.261 271.592 362.981C272.86 366.582 273.109 368.036 272.751 369.732C272.533 370.658 272.123 371.528 271.549 372.286C270.975 373.044 270.249 373.674 269.417 374.136C268.585 374.597 267.666 374.879 266.719 374.965C265.771 375.05 264.817 374.937 263.916 374.632ZM291.729 366.146C289.948 365.338 284.752 361.091 281.283 357.606C274.307 350.599 269.796 343.062 267.657 334.849C265.456 326.402 266.552 315.77 270.348 308.809C272.634 304.609 276.663 303.349 280.342 305.682C283.414 307.626 284.2 311.196 282.403 314.961C280.653 318.609 280.109 321.136 280.14 325.476C280.156 328.44 280.311 329.902 280.801 331.722C281.602 334.709 283.64 338.971 285.686 341.934C287.684 344.835 292.709 350.046 296.232 352.878C300.526 356.323 301.311 357.583 301.054 360.616C300.689 365.112 295.812 368.005 291.729 366.146ZM195.992 363.751C193.628 363.144 191.621 361.27 191.03 359.108C190.563 357.389 190.898 354.939 191.777 353.609C192.228 352.932 194.81 350.785 198.349 348.149C224.708 328.486 248.204 306.359 261.131 289.022C266.047 282.426 270.107 275.349 272.144 269.811C275.007 262.018 274.758 256.184 271.242 248.873C268.108 242.355 262.632 238.715 255.943 238.715C250.056 238.715 244.222 241.788 240.326 246.936C239.423 248.142 237.316 251.938 235.239 256.13C224.739 277.285 215.242 288.509 194.654 304.103C187.724 309.345 170.17 321.798 169.027 322.272C167.37 322.972 164.298 322.669 162.804 321.681C162.053 321.166 161.412 320.507 160.92 319.741C160.427 318.975 160.092 318.119 159.935 317.222C159.778 316.325 159.801 315.405 160.004 314.518C160.207 313.63 160.585 312.792 161.117 312.052C161.506 311.539 164.601 309.135 168.016 306.709C189.327 291.534 197.314 285.234 204.066 278.265C211.703 270.394 216.409 263.402 223.137 249.954C227.127 241.982 228.853 239.236 232.027 235.845C238.933 228.472 249.62 224.264 258.86 225.299C266.093 226.115 271.639 228.705 276.694 233.652C282.318 239.159 285.841 246.174 287.272 254.761C287.859 258.924 287.752 263.155 286.953 267.283C284.83 278.172 276.71 292.25 264.11 306.919C252.63 320.273 235.721 336.039 216.868 350.964C210.117 356.308 202.246 362.203 200.768 363.02C199.407 363.766 197.314 364.085 195.992 363.751ZM319.986 349.44C315.907 347.909 312.047 345.848 308.506 343.311C299.203 336.35 292.927 324.419 290.422 308.956C288.913 299.662 289.38 293.253 292.779 276.064C296.123 259.148 296.567 250.818 294.498 243.032C292.211 234.406 286.269 226.722 277.488 221.021C271.067 216.774 263.525 214.54 255.827 214.604C247.878 214.604 240.963 216.72 234.08 221.246C225.33 227.002 219.162 234.663 212.699 247.792C210.848 251.556 208.538 255.842 207.566 257.32C200.822 267.516 188.463 279.098 173.966 288.789C169.61 291.705 168.373 292.273 166.468 292.273C160.899 292.273 157.687 285.522 161.303 281.408C161.809 280.84 163.714 279.385 165.534 278.18C178.757 269.445 190.213 258.891 196.28 249.876C197.058 248.733 198.38 246.322 199.22 244.518C204.742 232.742 209.362 225.633 215.826 218.96C226.162 208.281 238.117 202.416 252.093 201.172C265.37 199.998 279.774 204.804 290.92 214.138C304.321 225.361 310.442 240.076 309.174 258.074C308.786 263.744 308.07 268.496 306.157 278.296C303.948 289.59 303.489 292.833 303.302 298.239C303.17 302.439 303.232 303.668 303.784 306.724C305.744 317.668 308.918 324.971 313.95 330.073C316.742 332.912 319.643 334.724 324.683 336.778C328.86 338.473 329.77 339.095 330.68 340.876C332.041 343.521 331.574 346.632 329.529 348.623C327.079 350.995 324.629 351.205 319.986 349.44ZM175.381 346.935C173.881 346.21 172.675 344.991 171.967 343.482C171.36 342.315 171.484 339.36 172.2 337.975C172.993 336.466 173.639 335.891 178.399 332.469C201.927 315.536 223.308 295.415 236.592 277.705C241.819 270.729 245.303 265.183 248.632 258.518C250.561 254.66 251.043 253.929 252.148 253.159C253.19 252.443 253.804 252.256 255.446 252.163C256.47 252.051 257.506 252.157 258.487 252.474C261.893 253.905 263.496 257.685 262.22 261.286C261.567 263.138 258.339 269.414 256.317 272.782C242.768 295.283 217.957 320.405 187.017 342.938C184.217 344.983 181.362 346.881 180.67 347.153C179.823 347.494 178.914 347.651 178.002 347.614C177.09 347.576 176.197 347.345 175.381 346.935ZM334.903 332.002C333.27 331.193 328.168 326.153 324.753 321.984C320.522 316.82 316.983 310.706 315.327 305.682C313.888 301.334 313.499 298.744 313.514 293.479C313.514 287.723 313.709 286.043 316.042 270.861C318.414 255.43 318.788 251.992 318.796 245.855C318.803 239.944 318.43 237.658 316.719 233.061C315.261 229.37 313.54 225.788 311.57 222.343C306.701 214.099 298.713 205.761 290.982 200.876C273.109 189.56 247.372 188.004 229.102 197.128C223.596 199.873 218.672 203.451 213.624 208.343C207.807 213.998 203.49 219.699 196.42 231.07C192.718 237.035 189.747 241.08 186.114 245.116C180.266 251.611 171.181 258.533 167.743 259.116C165.052 259.568 161.778 257.794 160.619 255.251C160.268 254.366 160.079 253.426 160.059 252.474C160.051 249.721 161.249 247.792 163.924 246.252C166.592 244.712 170.924 241.235 173.896 238.272C178.64 233.528 181.207 230.066 187.289 220.189C197.867 203.015 209.432 191.745 223.463 184.94C232.867 180.382 241.928 178.196 253.104 177.808C272.728 177.115 290.78 182.91 305.293 194.569C316.703 203.715 326.783 218.68 330.742 232.314C332.096 236.981 332.29 238.715 332.274 246.159C332.259 254.084 332.057 256.052 329.599 271.903C326.752 290.274 326.433 294.871 327.654 299.584C329.117 305.262 333.262 311.663 340.013 318.679C343.988 322.816 344.664 323.89 344.664 326.044C344.669 327.194 344.376 328.326 343.816 329.33C343.255 330.334 342.445 331.176 341.464 331.776C340.483 332.375 339.363 332.712 338.214 332.753C337.065 332.794 335.925 332.53 334.903 332.002ZM340.426 306.281C338.921 305.806 337.622 304.835 336.739 303.528C335.494 301.661 335.456 299.685 336.56 294.373C340.822 273.848 341.149 254.325 337.493 238.715C336.778 235.682 336.264 234.049 334.934 230.611C333.332 226.473 333.698 223.984 336.249 221.698C339.64 218.641 344.703 219.792 346.889 224.109C348.577 227.438 350.646 234.585 351.804 241.095C354.348 255.368 354.138 272.805 351.198 290.056C350.202 295.913 348.942 301.676 348.382 302.835C347.06 305.62 343.443 307.191 340.426 306.281ZM167.72 223.113C164.811 222.335 162.991 220.018 162.789 216.844C162.649 214.62 163.147 213.624 167.93 206.422C176.766 193.138 187.266 180.965 195.611 174.331C209.222 163.496 224.731 157.173 243.258 154.894C248.414 154.264 260.346 154.023 265.238 154.451C285.351 156.232 303.909 163.916 321.098 177.582C328.487 183.454 339.998 195.572 343.443 201.086C345.372 204.174 344.976 207.542 342.417 209.79C339.531 212.325 335.907 212.248 333.324 209.588C331.971 208.088 330.679 206.533 329.451 204.929C326.371 200.962 317.94 192.438 313.608 188.922C295.268 174.028 275.442 166.95 254.139 167.689C236.188 168.311 222.118 172.495 209.409 181.012C199.096 187.919 189.583 198.318 179.231 214.013C174.098 221.799 174.074 221.822 172.573 222.538C170.761 223.409 169.416 223.564 167.72 223.113ZM175.708 176.991C172.721 175.684 170.963 172.386 171.648 169.361C172.083 167.448 173.826 165.138 178.088 160.868C190.454 148.485 206.726 139.401 225.066 134.656C241.477 130.41 260.843 129.834 279.043 133.07C290.788 135.146 303.886 139.735 314.393 145.436C319.41 148.166 326.589 152.856 331.147 156.403C334.997 159.39 336.016 160.883 336 163.543C335.984 168.093 331.318 171.383 327.056 169.859C326.488 169.649 324.287 168.179 322.171 166.584C312.916 159.6 303.893 154.606 294.179 151.091C272.821 143.368 247.24 142.341 226.092 148.353C209.883 152.965 194.724 162.135 185.018 173.203C183.206 175.264 181.907 176.47 181.09 176.843C179.674 177.481 177.014 177.559 175.708 176.991Z" fill="#321D86"/>
<path d="M419.588 140.684C454.48 140.684 482.767 112.252 482.767 77.1789C482.767 42.1057 454.48 13.6733 419.588 13.6733C384.695 13.6733 356.409 42.1057 356.409 77.1789C356.409 112.252 384.695 140.684 419.588 140.684Z" fill="url(#paint3_linear_65_6)"/>
<path opacity="0.4" fill-rule="evenodd" clip-rule="evenodd" d="M419.596 81.9776C408.45 81.9776 386.151 87.5854 386.151 98.7932V110.794H453.04V98.7932C453.04 87.5932 430.749 81.9776 419.596 81.9776ZM419.596 43.5554C411.686 43.5554 405.269 50.011 405.269 57.9676C405.269 65.9243 411.686 72.3799 419.596 72.3799C427.513 72.3799 433.891 65.9243 433.891 57.9676C433.891 50.0187 427.513 43.5554 419.596 43.5554Z" fill="#321D86"/>
<defs>
<linearGradient id="paint0_linear_65_6" x1="512.486" y1="140" x2="512.486" y2="256.667" gradientUnits="userSpaceOnUse">
<stop stop-color="#70AFFC"/>
<stop offset="1" stop-color="#A8CFFE" stop-opacity="0"/>
</linearGradient>
<linearGradient id="paint1_linear_65_6" x1="96.0322" y1="337.859" x2="326.573" y2="218.229" gradientUnits="userSpaceOnUse">
<stop stop-color="#C7EEFF"/>
<stop offset="1" stop-color="#A39CFF" stop-opacity="0.8"/>
</linearGradient>
<linearGradient id="paint2_linear_65_6" x1="129.492" y1="323.462" x2="313.18" y2="229.6" gradientUnits="userSpaceOnUse">
<stop stop-color="#C7EEFF"/>
<stop offset="1" stop-color="#A39CFF" stop-opacity="0.8"/>
</linearGradient>
<linearGradient id="paint3_linear_65_6" x1="362.857" y1="101.158" x2="441.459" y2="57.05" gradientUnits="userSpaceOnUse">
<stop stop-color="#C7EEFF"/>
<stop offset="1" stop-color="#A39CFF" stop-opacity="0.8"/>
</linearGradient>
</defs>
</svg>
