<svg width="817" height="504" viewBox="0 0 817 504" fill="none" xmlns="http://www.w3.org/2000/svg">
<path d="M68 415V169.4H10V117H130V415H68ZM305.234 419.8C281.501 419.8 260.568 413.4 242.434 400.6C224.568 387.8 210.568 369.8 200.434 346.6C190.301 323.4 185.234 296.467 185.234 265.8C185.234 234.867 190.168 207.933 200.034 185C210.168 162.067 224.168 144.2 242.034 131.4C260.168 118.6 281.101 112.2 304.834 112.2C329.101 112.2 350.168 118.6 368.034 131.4C386.168 144.2 400.168 162.2 410.034 185.4C420.168 208.333 425.234 235.133 425.234 265.8C425.234 296.467 420.168 323.4 410.034 346.6C400.168 369.533 386.168 387.533 368.034 400.6C350.168 413.4 329.234 419.8 305.234 419.8ZM305.634 363.8C317.901 363.8 328.301 359.933 336.834 352.2C345.368 344.467 351.901 333.267 356.434 318.6C360.968 303.933 363.234 286.333 363.234 265.8C363.234 245.267 360.968 227.8 356.434 213.4C351.901 198.733 345.234 187.533 336.434 179.8C327.901 172.067 317.368 168.2 304.834 168.2C292.568 168.2 282.168 172.067 273.634 179.8C265.101 187.533 258.568 198.733 254.034 213.4C249.501 227.8 247.234 245.267 247.234 265.8C247.234 286.067 249.501 303.533 254.034 318.2C258.568 332.867 265.101 344.2 273.634 352.2C282.434 359.933 293.101 363.8 305.634 363.8Z" fill="url(#paint0_linear_78_2)"/>
<path d="M466.928 330V282.32H474.48V323.28H495.088V330H466.928ZM516.98 330.768C513.524 330.768 510.452 329.979 507.764 328.4C505.119 326.779 503.049 324.603 501.556 321.872C500.063 319.099 499.316 316.005 499.316 312.592C499.316 309.093 500.063 306 501.556 303.312C503.092 300.624 505.14 298.512 507.7 296.976C510.26 295.397 513.161 294.608 516.404 294.608C519.007 294.608 521.332 295.056 523.38 295.952C525.428 296.848 527.156 298.085 528.564 299.664C529.972 301.2 531.039 302.971 531.764 304.976C532.532 306.981 532.916 309.115 532.916 311.376C532.916 311.931 532.895 312.507 532.852 313.104C532.809 313.701 532.724 314.256 532.596 314.768H505.012V309.008H528.5L525.044 311.632C525.471 309.541 525.321 307.685 524.596 306.064C523.913 304.4 522.847 303.099 521.396 302.16C519.988 301.179 518.324 300.688 516.404 300.688C514.484 300.688 512.777 301.179 511.284 302.16C509.791 303.099 508.639 304.464 507.828 306.256C507.017 308.005 506.697 310.139 506.868 312.656C506.655 315.003 506.975 317.051 507.828 318.8C508.724 320.549 509.961 321.915 511.54 322.896C513.161 323.877 514.996 324.368 517.044 324.368C519.135 324.368 520.905 323.899 522.356 322.96C523.849 322.021 525.023 320.805 525.876 319.312L531.764 322.192C531.081 323.813 530.015 325.285 528.564 326.608C527.156 327.888 525.449 328.912 523.444 329.68C521.481 330.405 519.327 330.768 516.98 330.768ZM549.397 330L535.829 295.376H543.701L554.133 323.6H551.253L561.685 295.376H569.621L555.989 330H549.397ZM590.168 330.768C586.712 330.768 583.64 329.979 580.952 328.4C578.306 326.779 576.237 324.603 574.744 321.872C573.25 319.099 572.504 316.005 572.504 312.592C572.504 309.093 573.25 306 574.744 303.312C576.28 300.624 578.328 298.512 580.888 296.976C583.448 295.397 586.349 294.608 589.592 294.608C592.194 294.608 594.52 295.056 596.568 295.952C598.616 296.848 600.344 298.085 601.752 299.664C603.16 301.2 604.226 302.971 604.951 304.976C605.72 306.981 606.104 309.115 606.104 311.376C606.104 311.931 606.082 312.507 606.04 313.104C605.997 313.701 605.912 314.256 605.784 314.768H578.2V309.008H601.688L598.232 311.632C598.658 309.541 598.509 307.685 597.784 306.064C597.101 304.4 596.034 303.099 594.584 302.16C593.176 301.179 591.512 300.688 589.592 300.688C587.672 300.688 585.965 301.179 584.472 302.16C582.978 303.099 581.826 304.464 581.016 306.256C580.205 308.005 579.885 310.139 580.056 312.656C579.842 315.003 580.162 317.051 581.016 318.8C581.912 320.549 583.149 321.915 584.728 322.896C586.349 323.877 588.184 324.368 590.232 324.368C592.322 324.368 594.093 323.899 595.544 322.96C597.037 322.021 598.21 320.805 599.064 319.312L604.951 322.192C604.269 323.813 603.202 325.285 601.752 326.608C600.344 327.888 598.637 328.912 596.632 329.68C594.669 330.405 592.514 330.768 590.168 330.768ZM613.161 330V281.552H620.394V330H613.161ZM641.649 330.768C638.108 330.768 634.993 329.893 632.305 328.144C629.66 326.395 627.804 324.048 626.737 321.104L632.305 318.48C633.244 320.443 634.524 322 636.145 323.152C637.809 324.304 639.644 324.88 641.649 324.88C643.356 324.88 644.742 324.496 645.809 323.728C646.876 322.96 647.409 321.915 647.409 320.592C647.409 319.739 647.174 319.056 646.705 318.544C646.236 317.989 645.638 317.541 644.913 317.2C644.23 316.859 643.526 316.603 642.801 316.432L637.361 314.896C634.374 314.043 632.134 312.763 630.641 311.056C629.19 309.307 628.465 307.28 628.465 304.976C628.465 302.885 628.998 301.072 630.065 299.536C631.132 297.957 632.604 296.741 634.481 295.888C636.358 295.035 638.47 294.608 640.817 294.608C643.974 294.608 646.79 295.397 649.265 296.976C651.74 298.512 653.489 300.667 654.513 303.44L648.945 306.064C648.262 304.4 647.174 303.077 645.681 302.096C644.23 301.115 642.588 300.624 640.753 300.624C639.174 300.624 637.916 301.008 636.977 301.776C636.038 302.501 635.569 303.461 635.569 304.656C635.569 305.467 635.782 306.149 636.209 306.704C636.636 307.216 637.19 307.643 637.873 307.984C638.556 308.283 639.26 308.539 639.985 308.752L645.617 310.416C648.476 311.227 650.673 312.507 652.209 314.256C653.745 315.963 654.513 318.011 654.513 320.4C654.513 322.448 653.958 324.261 652.849 325.84C651.782 327.376 650.289 328.592 648.369 329.488C646.449 330.341 644.209 330.768 641.649 330.768ZM689.491 330.768C686.163 330.768 683.112 329.979 680.339 328.4C677.608 326.821 675.432 324.667 673.811 321.936C672.189 319.205 671.379 316.112 671.379 312.656C671.379 309.157 672.189 306.064 673.811 303.376C675.432 300.645 677.608 298.512 680.339 296.976C683.069 295.397 686.12 294.608 689.491 294.608C692.904 294.608 695.955 295.397 698.643 296.976C701.373 298.512 703.528 300.645 705.107 303.376C706.728 306.064 707.539 309.157 707.539 312.656C707.539 316.155 706.728 319.269 705.107 322C703.485 324.731 701.309 326.885 698.579 328.464C695.848 330 692.819 330.768 689.491 330.768ZM689.491 324.048C691.539 324.048 693.352 323.557 694.931 322.576C696.509 321.595 697.747 320.251 698.643 318.544C699.581 316.795 700.051 314.832 700.051 312.656C700.051 310.48 699.581 308.539 698.643 306.832C697.747 305.125 696.509 303.781 694.931 302.8C693.352 301.819 691.539 301.328 689.491 301.328C687.485 301.328 685.672 301.819 684.051 302.8C682.472 303.781 681.213 305.125 680.275 306.832C679.379 308.539 678.931 310.48 678.931 312.656C678.931 314.832 679.379 316.795 680.275 318.544C681.213 320.251 682.472 321.595 684.051 322.576C685.672 323.557 687.485 324.048 689.491 324.048ZM717.566 330V301.904H711.166V295.376H717.566V293.584C717.566 290.981 718.099 288.805 719.166 287.056C720.232 285.264 721.704 283.899 723.582 282.96C725.502 282.021 727.699 281.552 730.174 281.552C730.643 281.552 731.176 281.595 731.774 281.68C732.371 281.723 732.862 281.787 733.246 281.872V288.144C732.904 288.059 732.52 288.016 732.094 288.016C731.667 287.973 731.326 287.952 731.07 287.952C729.15 287.952 727.614 288.4 726.462 289.296C725.31 290.149 724.734 291.579 724.734 293.584V295.376H732.67V301.904H724.734V330H717.566ZM466.224 400V365.376H473.456V400H466.224ZM466.224 360.64V352.32H473.456V360.64H466.224ZM481.911 400V365.376H488.824V372.16L487.992 371.264C488.845 369.088 490.21 367.445 492.088 366.336C493.965 365.184 496.141 364.608 498.616 364.608C501.176 364.608 503.437 365.163 505.4 366.272C507.362 367.381 508.898 368.917 510.007 370.88C511.117 372.843 511.672 375.104 511.672 377.664V400H504.504V379.584C504.504 377.835 504.184 376.363 503.544 375.168C502.904 373.931 501.986 372.992 500.792 372.352C499.64 371.669 498.317 371.328 496.824 371.328C495.33 371.328 493.986 371.669 492.792 372.352C491.64 372.992 490.744 373.931 490.104 375.168C489.464 376.405 489.144 377.877 489.144 379.584V400H481.911ZM535.86 400.768C532.404 400.768 529.332 399.979 526.644 398.4C523.998 396.779 521.886 394.603 520.308 391.872C518.772 389.141 518.004 386.048 518.004 382.592C518.004 379.179 518.772 376.107 520.308 373.376C521.844 370.645 523.956 368.512 526.644 366.976C529.332 365.397 532.404 364.608 535.86 364.608C538.206 364.608 540.404 365.035 542.452 365.888C544.5 366.699 546.27 367.829 547.764 369.28C549.3 370.731 550.43 372.416 551.156 374.336L544.82 377.28C544.094 375.488 542.921 374.059 541.3 372.992C539.721 371.883 537.908 371.328 535.86 371.328C533.897 371.328 532.126 371.819 530.548 372.8C529.012 373.739 527.796 375.083 526.9 376.832C526.004 378.539 525.556 380.48 525.556 382.656C525.556 384.832 526.004 386.795 526.9 388.544C527.796 390.251 529.012 391.595 530.548 392.576C532.126 393.557 533.897 394.048 535.86 394.048C537.95 394.048 539.764 393.515 541.3 392.448C542.878 391.339 544.052 389.867 544.82 388.032L551.156 391.04C550.473 392.875 549.364 394.539 547.828 396.032C546.334 397.483 544.564 398.635 542.516 399.488C540.468 400.341 538.249 400.768 535.86 400.768ZM574.928 400.768C571.6 400.768 568.549 399.979 565.776 398.4C563.045 396.821 560.869 394.667 559.248 391.936C557.627 389.205 556.816 386.112 556.816 382.656C556.816 379.157 557.627 376.064 559.248 373.376C560.869 370.645 563.045 368.512 565.776 366.976C568.507 365.397 571.557 364.608 574.928 364.608C578.341 364.608 581.392 365.397 584.08 366.976C586.811 368.512 588.965 370.645 590.544 373.376C592.165 376.064 592.976 379.157 592.976 382.656C592.976 386.155 592.165 389.269 590.544 392C588.923 394.731 586.747 396.885 584.016 398.464C581.285 400 578.256 400.768 574.928 400.768ZM574.928 394.048C576.976 394.048 578.789 393.557 580.368 392.576C581.947 391.595 583.184 390.251 584.08 388.544C585.019 386.795 585.488 384.832 585.488 382.656C585.488 380.48 585.019 378.539 584.08 376.832C583.184 375.125 581.947 373.781 580.368 372.8C578.789 371.819 576.976 371.328 574.928 371.328C572.923 371.328 571.109 371.819 569.488 372.8C567.909 373.781 566.651 375.125 565.712 376.832C564.816 378.539 564.368 380.48 564.368 382.656C564.368 384.832 564.816 386.795 565.712 388.544C566.651 390.251 567.909 391.595 569.488 392.576C571.109 393.557 572.923 394.048 574.928 394.048ZM600.036 400V365.376H606.949V372.864L606.053 371.712C606.778 369.365 608.101 367.595 610.021 366.4C611.941 365.205 614.138 364.608 616.613 364.608C619.386 364.608 621.839 365.355 623.973 366.848C626.149 368.299 627.599 370.24 628.325 372.672L626.277 372.864C627.301 370.091 628.858 368.021 630.949 366.656C633.082 365.291 635.514 364.608 638.245 364.608C640.634 364.608 642.789 365.163 644.709 366.272C646.671 367.381 648.229 368.917 649.381 370.88C650.533 372.843 651.109 375.083 651.109 377.6V400H643.877V379.584C643.877 377.835 643.557 376.363 642.917 375.168C642.319 373.931 641.466 372.992 640.357 372.352C639.29 371.669 638.031 371.328 636.581 371.328C635.13 371.328 633.85 371.669 632.741 372.352C631.631 372.992 630.757 373.931 630.117 375.168C629.477 376.405 629.157 377.877 629.157 379.584V400H621.989V379.584C621.989 377.835 621.669 376.363 621.029 375.168C620.431 373.931 619.578 372.992 618.469 372.352C617.402 371.669 616.122 371.328 614.628 371.328C613.178 371.328 611.898 371.669 610.789 372.352C609.679 372.992 608.805 373.931 608.165 375.168C607.567 376.405 607.269 377.877 607.269 379.584V400H600.036ZM675.105 400.768C671.649 400.768 668.577 399.979 665.889 398.4C663.244 396.779 661.174 394.603 659.681 391.872C658.188 389.099 657.441 386.005 657.441 382.592C657.441 379.093 658.188 376 659.681 373.312C661.217 370.624 663.265 368.512 665.825 366.976C668.385 365.397 671.286 364.608 674.529 364.608C677.132 364.608 679.457 365.056 681.505 365.952C683.553 366.848 685.281 368.085 686.689 369.664C688.097 371.2 689.164 372.971 689.889 374.976C690.657 376.981 691.041 379.115 691.041 381.376C691.041 381.931 691.02 382.507 690.977 383.104C690.934 383.701 690.849 384.256 690.721 384.768H663.137V379.008H686.625L683.169 381.632C683.596 379.541 683.446 377.685 682.721 376.064C682.038 374.4 680.972 373.099 679.521 372.16C678.113 371.179 676.449 370.688 674.529 370.688C672.609 370.688 670.902 371.179 669.409 372.16C667.916 373.099 666.764 374.464 665.953 376.256C665.142 378.005 664.822 380.139 664.993 382.656C664.78 385.003 665.1 387.051 665.953 388.8C666.849 390.549 668.086 391.915 669.665 392.896C671.286 393.877 673.121 394.368 675.169 394.368C677.26 394.368 679.03 393.899 680.481 392.96C681.974 392.021 683.148 390.805 684.001 389.312L689.889 392.192C689.206 393.813 688.14 395.285 686.689 396.608C685.281 397.888 683.574 398.912 681.569 399.68C679.606 400.405 677.452 400.768 675.105 400.768Z" fill="#8D7DFC"/>
<defs>
<linearGradient id="paint0_linear_78_2" x1="223" y1="0" x2="223" y2="504" gradientUnits="userSpaceOnUse">
<stop stop-color="#CEACFF"/>
<stop offset="1" stop-color="#615EFA"/>
</linearGradient>
</defs>
</svg>
