<svg width="796" height="725" viewBox="0 0 796 725" fill="none" xmlns="http://www.w3.org/2000/svg">
<path d="M395 725C588.3 725 745 568.3 745 375C745 181.7 588.3 25 395 25C201.7 25 44.9999 181.7 44.9999 375C44.9999 568.3 201.7 725 395 725Z" fill="url(#paint0_linear_64_3)"/>
<path d="M473.656 562.191V568.216C476.877 594.122 500.446 607.453 512.656 611.009C500.446 614.565 476.877 627.896 473.656 653.802V659.826C473.656 658.363 473.593 656.936 473.472 655.544C473.351 656.936 473.288 658.363 473.288 659.826V653.802C470.068 627.896 446.498 614.565 434.289 611.009C446.498 607.453 470.068 594.122 473.288 568.216V562.191C473.288 563.653 473.351 565.08 473.472 566.472C473.593 565.08 473.656 563.653 473.656 562.191Z" fill="#F3F4FA" fill-opacity="0.2"/>
<path d="M563.811 171.907C603.485 171.907 635.647 139.851 635.647 100.308C635.647 60.765 603.485 28.7091 563.811 28.7091C524.137 28.7091 491.975 60.765 491.975 100.308C491.975 139.851 524.137 171.907 563.811 171.907Z" fill="#9DE8F8"/>
<path d="M561.048 166.399C599.196 166.399 630.122 135.576 630.122 97.5543C630.122 59.532 599.196 28.7091 561.048 28.7091C522.9 28.7091 491.975 59.532 491.975 97.5543C491.975 135.576 522.9 166.399 561.048 166.399Z" fill="#BBF3FF"/>
<path d="M547.428 101.786L555.096 61.2537H570.576L564.955 88.7801L582.186 75.9946L580.251 86.5241L562.767 99.4971L558.966 118.112H589.926L587.991 132.853H541.551L545.428 112.364L537.681 118.112L539.617 107.582L547.428 101.786Z" fill="white"/>
<path d="M95.7851 354.764C144.476 354.764 183.947 315.423 183.947 266.893C183.947 218.363 144.476 179.022 95.7851 179.022C47.0939 179.022 7.62201 218.363 7.62201 266.893C7.62201 315.423 47.0939 354.764 95.7851 354.764Z" fill="#E9CD86"/>
<path opacity="0.8" d="M92.5195 348.255C139.407 348.255 177.417 310.371 177.417 263.638C177.417 216.906 139.407 179.022 92.5195 179.022C45.6319 179.022 7.62201 216.906 7.62201 263.638C7.62201 310.371 45.6319 348.255 92.5195 348.255Z" fill="#FFDD85"/>
<path fill-rule="evenodd" clip-rule="evenodd" d="M130.67 253.168C132.338 242.082 123.863 236.122 112.285 232.149L116.043 217.13L106.869 214.853L103.215 229.474L101.838 229.135C99.8667 228.659 97.8583 228.205 95.8644 227.751L99.5474 213.03L90.3802 210.754L86.6232 225.765L84.0861 225.184L80.7672 224.392L68.1259 221.2L65.6855 230.962C65.6855 230.962 72.4935 232.517 72.3521 232.613C73.937 233.008 74.9637 233.678 75.6185 234.47C76.4967 235.534 76.6903 236.814 76.6232 237.93L72.3447 255.039C72.5976 255.102 72.9325 255.195 73.297 255.344L72.3298 255.103L66.3328 279.068C66.0947 279.663 65.6557 280.411 64.9191 280.895C64.2643 281.327 63.3566 281.542 62.1289 281.24C62.2182 281.374 55.4622 279.582 55.4622 279.582L50.9086 290.046L62.8432 293.012L66.8313 294.034L69.3834 294.693L65.5887 309.883L74.7479 312.159L78.5051 297.134L82.9173 298.294L85.8194 299.023L82.0693 313.983L91.2434 316.259L95.0385 301.099C110.678 304.05 122.434 302.859 127.39 288.76C131.378 277.409 127.189 270.861 118.959 266.591C124.949 265.214 129.465 261.285 130.67 253.168ZM109.718 282.457C106.883 293.808 87.7089 287.673 81.4887 286.133L86.5265 266.01L88.7878 266.531C96.5265 268.264 112.382 271.813 109.718 282.457ZM90.336 257.189C96.5707 258.849 110.187 262.472 112.561 253.004C114.978 243.324 101.757 240.404 95.2914 238.979L93.4011 238.547L88.8327 256.798L90.336 257.189Z" fill="white"/>
<path d="M113.39 178.039C64.107 171.391 18.7477 205.822 12.0775 254.942C5.40729 304.063 39.952 349.272 89.2352 355.92C138.518 362.569 183.878 328.138 190.548 279.017C197.218 229.897 162.673 184.687 113.39 178.039Z" fill="url(#paint1_radial_64_3)" fill-opacity="0.7"/>
<path d="M719.914 446.485C759.543 445.501 790.868 412.578 789.885 372.948C788.902 333.319 755.978 301.991 716.349 302.975C676.72 303.96 645.392 336.884 646.376 376.514C647.361 416.142 680.285 447.47 719.914 446.485Z" fill="#4B64BC"/>
<path d="M716.901 440.817C754.945 439.871 785.016 408.264 784.071 370.22C783.127 332.177 751.523 302.102 713.479 303.047C675.434 303.992 645.36 335.599 646.305 373.643C647.25 411.687 678.857 441.762 716.901 440.817Z" fill="#526ED1"/>
<path d="M715.985 324.524L716.855 359.529L746.77 372.015L715.985 324.524Z" fill="white" fill-opacity="0.602"/>
<path d="M715.978 324.533L687.585 373.494L716.848 359.538L715.978 324.533Z" fill="white"/>
<path d="M717.744 395.438L718.334 419.224L746.924 377.527L717.744 395.438Z" fill="white" fill-opacity="0.602"/>
<path d="M718.327 419.225L717.736 395.435L687.719 379L718.327 419.225Z" fill="white"/>
<path d="M717.61 389.931L746.771 372.017L716.855 359.539L717.61 389.931Z" fill="white" fill-opacity="0.2"/>
<path d="M687.585 373.488L717.604 389.932L716.849 359.54L687.585 373.488Z" fill="white" fill-opacity="0.602"/>
<g style="mix-blend-mode:overlay">
<path d="M724.92 302.476C686.136 298.204 651.233 326.182 646.961 364.966C642.69 403.75 670.667 438.653 709.451 442.924C748.235 447.196 783.138 419.218 787.41 380.434C791.681 341.651 763.704 306.747 724.92 302.476Z" fill="url(#paint2_radial_64_3)" fill-opacity="0.7"/>
</g>
<g style="mix-blend-mode:overlay">
<path d="M576.129 31.8266C536.712 26.5094 500.433 54.0471 495.098 93.3338C489.764 132.621 517.393 168.779 556.81 174.096C596.227 179.414 632.505 151.876 637.84 112.589C643.175 73.3025 615.546 37.1439 576.129 31.8266Z" fill="url(#paint3_radial_64_3)" fill-opacity="0.7"/>
</g>
<g style="mix-blend-mode:overlay">
<path d="M326.512 549.731C290.57 544.882 257.489 569.993 252.624 605.817C247.759 641.641 272.953 674.612 308.896 679.461C344.839 684.31 377.92 659.199 382.785 623.375C387.649 587.551 362.455 554.579 326.512 549.731Z" fill="url(#paint4_radial_64_3)" fill-opacity="0.4"/>
</g>
<path d="M263.675 0V9.23718C268.506 48.9604 303.86 69.4014 322.174 74.8534C303.86 80.3055 268.506 100.747 263.675 140.469V149.707C263.675 147.464 263.58 145.276 263.399 143.142C263.217 145.276 263.123 147.464 263.123 149.707V140.469C258.292 100.747 222.938 80.3055 204.623 74.8534C222.938 69.4014 258.292 48.9604 263.123 9.23718V0C263.123 2.24236 263.217 4.43048 263.399 6.565C263.58 4.43048 263.675 2.24236 263.675 0Z" fill="url(#paint5_linear_64_3)"/>
<g style="mix-blend-mode:overlay">
<path d="M177.418 429.338C182.828 429.338 187.214 424.966 187.214 419.574C187.214 414.182 182.828 409.811 177.418 409.811C172.008 409.811 167.622 414.182 167.622 419.574C167.622 424.966 172.008 429.338 177.418 429.338Z" fill="white" fill-opacity="0.7"/>
</g>
<g style="mix-blend-mode:overlay">
<path d="M645.446 523.389C650.856 523.389 655.242 519.017 655.242 513.625C655.242 508.233 650.856 503.862 645.446 503.862C640.036 503.862 635.65 508.233 635.65 513.625C635.65 519.017 640.036 523.389 645.446 523.389Z" fill="white" fill-opacity="0.7"/>
</g>
<g style="mix-blend-mode:overlay">
<path d="M387.486 93.7958C391.092 93.7958 394.016 90.8816 394.016 87.2868C394.016 83.692 391.092 80.7778 387.486 80.7778C383.879 80.7778 380.955 83.692 380.955 87.2868C380.955 90.8816 383.879 93.7958 387.486 93.7958Z" fill="white"/>
</g>
<g style="mix-blend-mode:overlay">
<path d="M609.524 230.485C613.131 230.485 616.055 227.57 616.055 223.976C616.055 220.381 613.131 217.467 609.524 217.467C605.918 217.467 602.994 220.381 602.994 223.976C602.994 227.57 605.918 230.485 609.524 230.485Z" fill="white" fill-opacity="0.5"/>
</g>
<g style="mix-blend-mode:overlay">
<path d="M498.505 236.991C502.112 236.991 505.036 234.077 505.036 230.482C505.036 226.887 502.112 223.973 498.505 223.973C494.898 223.973 491.974 226.887 491.974 230.482C491.974 234.077 494.898 236.991 498.505 236.991Z" fill="white" fill-opacity="0.5"/>
</g>
<path d="M316.198 677.513C352.539 677.513 381.999 648.053 381.999 611.712C381.999 575.371 352.539 545.912 316.198 545.912C279.857 545.912 250.398 575.371 250.398 611.712C250.398 648.053 279.857 677.513 316.198 677.513Z" fill="#7CE0B6"/>
<path d="M313.838 672.431C348.666 672.431 376.899 644.198 376.899 609.371C376.899 574.543 348.666 546.309 313.838 546.309C279.01 546.309 250.777 574.543 250.777 609.371C250.777 644.198 279.01 672.431 313.838 672.431Z" fill="#94F1CA"/>
<g style="mix-blend-mode:overlay">
<path d="M324.824 547.959C289.615 543.193 257.209 567.873 252.443 603.083C247.678 638.292 272.357 670.698 307.567 675.464C342.776 680.229 375.183 655.549 379.948 620.34C384.714 585.13 360.034 552.724 324.824 547.959Z" fill="url(#paint6_radial_64_3)" fill-opacity="0.7"/>
</g>
<g style="mix-blend-mode:overlay" opacity="0.8">
<path d="M320.215 574.574H314.516V581.195C312.002 581.447 309.572 581.95 307.057 582.704C304.543 583.542 302.364 584.632 300.436 586.056C298.425 587.481 296.833 589.241 295.659 591.336C294.402 593.432 293.815 595.862 293.815 598.628C293.815 601.31 294.318 603.74 295.324 605.835C296.33 607.931 297.754 609.691 299.431 611.199C301.107 612.708 302.951 613.965 305.046 614.887C307.141 615.893 309.32 616.563 311.499 616.982L314.516 617.653V633.157C311.834 632.99 309.739 631.984 308.147 630.14C306.471 628.296 305.716 625.698 305.884 622.178L292.474 622.346C292.391 625.531 292.894 628.296 293.983 630.811C295.073 633.325 296.581 635.504 298.593 637.348C300.604 639.192 302.951 640.7 305.633 641.79C308.314 642.963 311.332 643.634 314.516 643.801V652.266H320.215V643.801C322.981 643.634 325.663 643.047 328.345 642.125C331.027 641.203 333.374 639.946 335.385 638.353C337.396 636.845 339.073 634.917 340.33 632.738C341.503 630.559 342.174 627.961 342.174 625.112C342.174 621.927 341.419 619.329 340.078 617.15C338.737 615.054 336.977 613.294 334.882 611.87C332.787 610.529 330.44 609.439 327.926 608.601C325.328 607.847 322.897 607.176 320.551 606.59L320.215 606.506V592.007C322.562 592.342 324.49 593.348 325.914 595.024C327.339 596.7 328.01 598.879 327.926 601.477L341.335 601.31C341.335 598.628 340.833 596.113 339.827 593.767C338.821 591.42 337.313 589.409 335.469 587.649C333.541 585.973 331.278 584.548 328.68 583.374C326.082 582.285 323.233 581.614 320.215 581.279V574.574ZM328.932 626.285C328.932 628.296 328.094 629.889 326.417 631.146C324.741 632.403 322.646 633.073 320.215 633.241V618.993C322.814 619.748 324.909 620.67 326.501 621.759C328.094 622.849 328.932 624.357 328.932 626.285ZM306.722 598.293C306.722 596.533 307.393 595.024 308.901 593.851C310.326 592.677 312.17 592.007 314.516 591.839V605.249C311.583 604.662 309.572 603.74 308.398 602.567C307.225 601.393 306.722 599.969 306.722 598.293Z" fill="white"/>
</g>
<path d="M268.545 272.664H523.842C541.706 272.664 556.193 287.236 556.193 305.212V320.331H236.193V305.212C236.193 287.236 250.68 272.664 268.545 272.664Z" fill="url(#paint7_linear_64_3)"/>
<path fill-rule="evenodd" clip-rule="evenodd" d="M236.193 461.067V341.332H556.193V461.067C556.193 479.044 541.706 493.616 523.842 493.616H268.545C250.68 493.616 236.193 479.044 236.193 461.067ZM349.809 383.598H270.888V404.594H349.809V383.598ZM270.888 445.833H375.077V424.837H270.888V445.833ZM471.818 440.357C476.967 444.085 483.284 446.287 490.114 446.287C507.45 446.287 521.498 432.154 521.498 414.714C521.498 397.277 507.45 383.14 490.114 383.14C483.284 383.14 476.967 385.342 471.818 389.07C468.329 386.544 464.304 384.717 459.943 383.806C457.875 383.371 455.725 383.14 453.522 383.14C436.186 383.14 422.138 397.277 422.138 414.714C422.138 432.154 436.186 446.287 453.522 446.287C460.353 446.287 466.669 444.085 471.818 440.357Z" fill="url(#paint8_linear_64_3)"/>
<path d="M453.336 447.902C472.272 447.902 487.622 432.552 487.622 413.616C487.622 394.681 472.272 379.33 453.336 379.33C434.401 379.33 419.05 394.681 419.05 413.616C419.05 432.552 434.401 447.902 453.336 447.902Z" fill="#6F90FF"/>
<path d="M491.432 447.902C510.367 447.902 525.717 432.552 525.717 413.616C525.717 394.681 510.367 379.33 491.432 379.33C472.496 379.33 457.146 394.681 457.146 413.616C457.146 432.552 472.496 447.902 491.432 447.902Z" fill="#80A2FF"/>
<defs>
<linearGradient id="paint0_linear_64_3" x1="240.588" y1="0.982224" x2="395" y2="725" gradientUnits="userSpaceOnUse">
<stop stop-color="#7075FF"/>
<stop offset="1" stop-color="#261E88"/>
</linearGradient>
<radialGradient id="paint1_radial_64_3" cx="0" cy="0" r="1" gradientUnits="userSpaceOnUse" gradientTransform="translate(0.622195 145.917) rotate(106.173) scale(76.4349 76.7437)">
<stop offset="0.149171" stop-color="#FCFFD4" stop-opacity="0.7"/>
<stop offset="1" stop-color="white" stop-opacity="0"/>
</radialGradient>
<radialGradient id="paint2_radial_64_3" cx="0" cy="0" r="1" gradientUnits="userSpaceOnUse" gradientTransform="translate(698.336 357.354) rotate(104.7) scale(60.1514 60.2254)">
<stop offset="0.149171" stop-color="#D4FFFA" stop-opacity="0.7"/>
<stop offset="1" stop-color="white" stop-opacity="0"/>
</radialGradient>
<radialGradient id="paint3_radial_64_3" cx="0" cy="0" r="1" gradientUnits="userSpaceOnUse" gradientTransform="translate(485.937 6.13546) rotate(106.173) scale(61.1329 61.3797)">
<stop offset="0.149171" stop-color="#D4FFFA" stop-opacity="0.7"/>
<stop offset="1" stop-color="white" stop-opacity="0"/>
</radialGradient>
<radialGradient id="paint4_radial_64_3" cx="0" cy="0" r="1" gradientUnits="userSpaceOnUse" gradientTransform="translate(244.269 526.304) rotate(106.173) scale(55.7448 55.9698)">
<stop offset="0.149171" stop-color="#D4FFFA" stop-opacity="0.7"/>
<stop offset="1" stop-color="white" stop-opacity="0"/>
</radialGradient>
<linearGradient id="paint5_linear_64_3" x1="263.399" y1="-9.24107" x2="263.399" y2="140.466" gradientUnits="userSpaceOnUse">
<stop stop-color="white"/>
<stop offset="1" stop-color="#A8CFFE" stop-opacity="0.3"/>
</linearGradient>
<radialGradient id="paint6_radial_64_3" cx="0" cy="0" r="1" gradientUnits="userSpaceOnUse" gradientTransform="translate(299.383 597.315) rotate(106.123) scale(54.7745 54.8418)">
<stop offset="0.149171" stop-color="#D4FFFA" stop-opacity="0.7"/>
<stop offset="1" stop-color="white" stop-opacity="0"/>
</radialGradient>
<linearGradient id="paint7_linear_64_3" x1="396.193" y1="272.664" x2="396.193" y2="466.949" gradientUnits="userSpaceOnUse">
<stop stop-color="white"/>
<stop offset="1" stop-color="white" stop-opacity="0.5"/>
</linearGradient>
<linearGradient id="paint8_linear_64_3" x1="396.193" y1="272.664" x2="396.193" y2="466.949" gradientUnits="userSpaceOnUse">
<stop stop-color="white"/>
<stop offset="1" stop-color="white" stop-opacity="0.5"/>
</linearGradient>
</defs>
</svg>
