<svg width="64" height="64" viewBox="0 0 64 64" fill="none" xmlns="http://www.w3.org/2000/svg">
<mask id="mask0_14_16" style="mask-type:luminance" maskUnits="userSpaceOnUse" x="0" y="0" width="64" height="64">
<path d="M0 0H63.3594V63.3594H0V0Z" fill="white"/>
</mask>
<g mask="url(#mask0_14_16)">
<path d="M31.8645 63.7345C14.2864 63.7345 -0.010498 49.4377 -0.010498 31.8647C-0.010498 14.2866 14.2864 -0.0102539 31.8645 -0.0102539C49.4374 -0.0102539 63.7343 14.2866 63.7343 31.8647C63.7343 49.4377 49.4374 63.7345 31.8645 63.7345ZM31.8645 3.46891C16.2082 3.46891 3.46867 16.2085 3.46867 31.8647C3.46867 47.521 16.2082 60.2554 31.8645 60.2554C47.5207 60.2554 60.2551 47.521 60.2551 31.8647C60.2551 16.2085 47.5207 3.46891 31.8645 3.46891Z" fill="#9561FF"/>
</g>
<mask id="mask1_14_16" style="mask-type:luminance" maskUnits="userSpaceOnUse" x="17" y="17" width="30" height="30">
<path d="M22 22H42V42H22V22Z" fill="white" stroke="#9561FF" stroke-width="10"/>
</mask>
<g mask="url(#mask1_14_16)">
<path d="M32.0582 42.1182C26.5095 42.1182 21.9966 37.6053 21.9966 32.0582C21.9966 26.5095 26.5095 21.9966 32.0582 21.9966C37.6053 21.9966 42.1182 26.5095 42.1182 32.0582C42.1182 37.6053 37.6053 42.1182 32.0582 42.1182ZM32.0582 23.0948C27.1162 23.0948 23.0948 27.1162 23.0948 32.0582C23.0948 37.0003 27.1162 41.02 32.0582 41.02C37.0003 41.02 41.02 37.0003 41.02 32.0582C41.02 27.1162 37.0003 23.0948 32.0582 23.0948Z" fill="#9561FF" stroke="#9561FF" stroke-width="10"/>
</g>
</svg>
